<?xml version="1.0" encoding="UTF-8"?>
<svg width="90" height="90" version="1.1" viewBox="0 0 23.81 23.81" xmlns="http://www.w3.org/2000/svg">
 <g transform="translate(-93.85 -137.4)" fill="#fff">
  <path d="m113.6 150.1-3.154 3.083v2.152c0 0.0343 4e-3 0.0662 8e-3 0.0986v2.254c0 0.1877 0.0575 0.3473 0.1725 0.4787 0.115 0.1314 0.2546 0.1971 0.4189 0.1971h1.971c0.1643 0 0.3039-0.0657 0.4189-0.1971 0.115-0.1314 0.1725-0.291 0.1725-0.4787v-4.957c0-0.0352-4e-3 -0.0685-8e-3 -0.1018z"/>
  <path d="m99.94 145.1c-1.564 0-2.839-1.275-2.839-2.839s1.275-2.839 2.839-2.839c1.564 0 2.839 1.275 2.839 2.839 0 1.564-1.275 2.839-2.839 2.839zm0-0.7106c1.18 0 2.128-0.9483 2.128-2.128 0-1.18-0.9483-2.13-2.128-2.13-1.18 0-2.128 0.95-2.128 2.13 8e-6 1.18 0.9483 2.128 2.128 2.128z" color="#000000" color-rendering="auto" dominant-baseline="auto" fill-rule="evenodd" image-rendering="auto" shape-rendering="auto" solid-color="#000000" stop-color="#000000" style="font-feature-settings:normal;font-variant-alternates:normal;font-variant-caps:normal;font-variant-east-asian:normal;font-variant-ligatures:normal;font-variant-numeric:normal;font-variant-position:normal;font-variation-settings:normal;inline-size:0;isolation:auto;mix-blend-mode:normal;shape-margin:0;shape-padding:0;text-decoration-color:#000000;text-decoration-line:none;text-decoration-style:solid;text-indent:0;text-orientation:mixed;text-transform:none;white-space:normal"/>
  <path d="m101 153.2-3.143 4.253c-0.0035 4e-3 -0.0071 9e-3 -0.01095 0.0132v0.2031c0 0.1878 0.05749 0.3473 0.1725 0.4787 0.115 0.1314 0.2546 0.1971 0.4189 0.1971h1.971c0.1643 0 0.3039-0.0657 0.4189-0.1971 0.115-0.1314 0.1725-0.2909 0.1725-0.4787v-2.707z"/>
  <path d="m98.48 146.5c-0.1643 0-0.3039 0.0657-0.4189 0.1971-0.115 0.1314-0.1725 0.291-0.1725 0.4787v5.036l3.154-4.267v-0.7689c0-0.1877-0.0575-0.3473-0.1725-0.4787-0.115-0.1314-0.2546-0.1971-0.4189-0.1971z"/>
  <path d="m111.1 140.9c-0.1643 0-0.3039 0.0657-0.4189 0.1971-0.115 0.1314-0.1725 0.2909-0.1725 0.4787v2.722c-4e-3 0.0323-8e-3 0.0647-8e-3 0.099v4.442l3.162-3.092v-4.171c0-0.1878-0.0575-0.3473-0.1725-0.4787-0.115-0.1314-0.2546-0.1971-0.4189-0.1971z"/>
  <path d="m104.2 151.2v6.435c0 0.1825 0.0575 0.3377 0.1725 0.4654 0.115 0.1278 0.2546 0.1917 0.4189 0.1917h1.971c0.1643 0 0.3039-0.0638 0.4189-0.1917 0.115-0.1278 0.1725-0.2829 0.1725-0.4654v-3.95z"/>
  <path d="m104.8 143.7c-0.1643 0-0.3039 0.0657-0.4189 0.1971-0.115 0.1314-0.1725 0.2909-0.1725 0.4787v2.254c-4e-3 0.0323-8e-3 0.0644-8e-3 0.0986v0.549l3.154 2.484v-0.3276c4e-3 -0.0333 8e-3 -0.0665 8e-3 -0.1018v-4.957c0-0.1877-0.0575-0.3473-0.1725-0.4787-0.115-0.1314-0.2546-0.1971-0.4189-0.1971z"/>
  <path d="m116 145c-0.1542 2e-3 -0.3017 0.0632-0.4122 0.1707l-6.964 6.809-5.895-4.645-6.542 8.851c-0.1983 0.2676-0.1419 0.6453 0.1259 0.8434 0.2676 0.1983 0.6453 0.1419 0.8434-0.1259l5.804-7.853 5.75 4.531 7.721-7.549c0.238-0.2325 0.2426-0.6138 0.0103-0.852-0.116-0.1186-0.2757-0.184-0.4415-0.1811z" color="#000000" color-rendering="auto" dominant-baseline="auto" image-rendering="auto" shape-rendering="auto" solid-color="#000000" stop-color="#000000" style="font-feature-settings:normal;font-variant-alternates:normal;font-variant-caps:normal;font-variant-east-asian:normal;font-variant-ligatures:normal;font-variant-numeric:normal;font-variant-position:normal;font-variation-settings:normal;inline-size:0;isolation:auto;mix-blend-mode:normal;paint-order:stroke fill markers;shape-margin:0;shape-padding:0;text-decoration-color:#000000;text-decoration-line:none;text-decoration-style:solid;text-indent:0;text-orientation:mixed;text-transform:none;white-space:normal"/>
  <path d="m117.2 144.4-0.2706 0.0694-2.603 0.664 2.075 2.123z" color="#000000" color-rendering="auto" dominant-baseline="auto" fill-rule="evenodd" image-rendering="auto" shape-rendering="auto" solid-color="#000000" stop-color="#000000" style="font-feature-settings:normal;font-variant-alternates:normal;font-variant-caps:normal;font-variant-east-asian:normal;font-variant-ligatures:normal;font-variant-numeric:normal;font-variant-position:normal;font-variation-settings:normal;inline-size:0;isolation:auto;mix-blend-mode:normal;paint-order:stroke fill markers;shape-margin:0;shape-padding:0;text-decoration-color:#000000;text-decoration-line:none;text-decoration-style:solid;text-indent:0;text-orientation:mixed;text-transform:none;white-space:normal"/>
  <path d="m101.3 142c0-0.0624-0.0511-0.1136-0.1135-0.1136h-0.8706v-0.8705c0-0.0624-0.0511-0.1136-0.1135-0.1136h-0.5299c-0.0624 0-0.1136 0.0511-0.1136 0.1136v0.8705h-0.8706c-0.06243 0-0.1135 0.0511-0.1135 0.1136v0.5299c0 0.0624 0.05113 0.1135 0.1135 0.1135h0.8706v0.8705c0 0.0624 0.0511 0.1136 0.1136 0.1136h0.5299c0.0624 0 0.1135-0.0511 0.1135-0.1136v-0.8705h0.8706c0.0624 0 0.1135-0.0511 0.1135-0.1135z" stroke-width=".009462"/>
 </g>
</svg>
