<svg xmlns="http://www.w3.org/2000/svg" width="72.5" height="96.667" viewBox="0 0 72.5 96.667">
  <g id="Claim_Icon_for_Tile_White" transform="translate(-284 -797.25)">
    <path id="Path_145" data-name="Path 145" d="M63.437,12.333h-15.1a12.083,12.083,0,0,0-24.167,0H9.063A9.065,9.065,0,0,0,0,21.4V87.854a9.065,9.065,0,0,0,9.063,9.063H63.437A9.065,9.065,0,0,0,72.5,87.854V21.4A9.065,9.065,0,0,0,63.437,12.333ZM36.25,7.8a4.531,4.531,0,1,1-4.531,4.531A4.52,4.52,0,0,1,36.25,7.8ZM63.437,86.721A1.136,1.136,0,0,1,62.3,87.854H10.2a1.136,1.136,0,0,1-1.133-1.133V22.529A1.136,1.136,0,0,1,10.2,21.4h7.93v6.8a2.272,2.272,0,0,0,2.266,2.266H52.109a2.272,2.272,0,0,0,2.266-2.266V21.4H62.3a1.136,1.136,0,0,1,1.133,1.133Z" transform="translate(284 797)" fill="#fff"/>
    <path id="Path_144" data-name="Path 144" d="M15.5.938A15.065,15.065,0,1,0,30.567,16,15.065,15.065,0,0,0,15.5.938Zm0,2.916A12.149,12.149,0,1,1,3.353,16,12.143,12.143,0,0,1,15.5,3.853Zm8.517,7.913-1.369-1.38a.729.729,0,0,0-1.031,0L13.033,18.9,9.4,15.238a.729.729,0,0,0-1.031,0L6.99,16.6a.729.729,0,0,0,0,1.031L12.5,23.193a.729.729,0,0,0,1.031,0L24.015,12.8A.729.729,0,0,0,24.019,11.766Z" transform="translate(304.467 840.419)" fill="#fff" stroke="#fff" stroke-width="1"/>
  </g>
</svg>
