<?xml version="1.0" encoding="UTF-8"?>
<svg id="Layer_1" data-name="Layer 1" xmlns="http://www.w3.org/2000/svg" viewBox="0 0 85.2265 84.14247">
  <path d="M58.35919,26.81865c-2.36861-.32721-3.60556-.94213-6.64331-1.26982-.91356-.09855-7.96345,.12289-7.96345,.12289,0,0-7.02658-.04096-9.41135,2.82638l-4.59921,6.22622s-3.18525,4.46594-1.36273,4.91544c1.66083,.40962,3.1813,.25321,5.28058-.98309,2.59314-1.52714,5.28058-5.24313,5.28058-5.24313,1.67156-.25617,4.08819-1.14694,4.08819-1.14694,7.32467,2.29387,27.42494,17.04018,27.42494,17.04018,2.8958-.81924,5.62126-4.42389,5.62126-4.42389l-10.39081-18.02327c-1.66083,.36866-4.65599,.3277-7.32467-.04096Zm-35.72907,.28673l-10.7315,18.06423,3.1939,3.93235s5.74902-4.05524,8.17638,2.08906c0,0,2.41317-4.0962,6.16067-2.21195,3.74751,1.88425,2.58351,5.18852,2.58351,5.18852,0,0,5.45092-.02731,5.13863,5.57083,0,0,2.44156,0,4.00302,1.88425s1.41951,4.47851-.22712,6.22622c0,0,6.35941,2.47137,9.72364,1.32444,0,0,1.78858-.8602,2.5977-2.21195l-7.96345-3.89139s-1.02205-.34818-.38327-1.37223c0,0,.39746-.48472,1.1498-.18433,1.07029,.42734,8.32543,3.99379,8.32543,3.99379,0,0,2.68287,.7578,4.15207-.59395,0,0,1.02205-1.14694,.85171-2.66253l-10.64633-5.98045c-.8801-.43693,.02129-1.33126,.02129-1.33126,.291-.36183,1.08593,.06144,1.08593,.06144l10.60374,5.91901s2.11507,.40279,3.25068-.47106c0,0,1.58985-.71001,1.30595-3.44081l-12.49169-7.20931c-1.02205-.51885-.34068-1.31078-.34068-1.31078,.51102-.6827,1.30595-.10923,1.30595-.10923l12.83237,7.48239s2.83902,1.09232,4.08819-1.20155c0,0,1.36273-1.80233-.68136-3.65927-2.04409-1.85694-21.7469-15.7294-26.63001-16.87633,0,0-2.07248,.71001-3.1797,.81924,0,0-3.63395,5.73468-9.93657,6.55392,0,0-4.76955,.3277-3.74751-3.27696s4.48565-7.537,5.16702-8.62932c0,0-4.57082-.16385-8.75838-2.48503Zm-1.66083,27.00418c.38027-.44538,.68136-1.11958,.68136-1.74088,0-1.42523-1.35021-2.72397-2.83192-2.72397-1.09547,0-1.99086,.7578-2.5977,1.63848l-.78783,1.07525c-.41298,.4539-.74524,1.29514-.74524,1.94569,0,1.42523,1.32892,2.61133,2.81063,2.61133,1.06973,0,1.95892-.61443,2.5977-1.57704l.873-1.22886Zm8.91098,.66563c.39675-.44989,.55361-1.20713,.55361-1.84329,0-1.42523-1.40344-2.61133-2.88515-2.61133-1.08714,0-2.01216,.809-2.64029,1.64872l-4.59921,6.05213c-.45779,.55299-.64943,1.2391-.62813,1.92521,.03918,1.26239,1.32359,2.6062,2.8053,2.6062,.96174,0,1.61292-.25089,2.19847-.99845l1.38402-1.81257,3.81138-4.96664Zm4.9186,5.7142c.38654-.44715,.48973-1.23678,.48973-1.86377,0-1.42523-1.3928-2.51916-2.87451-2.51916-.98079,0-1.74033,.54882-2.20827,1.30445l-.00616-.00391-3.72621,5.11001,.00578,.00414c-.32995,.42877-.52746,.95752-.52746,1.53193,0,1.42524,1.20117,2.58061,2.68288,2.58061,1.05956,0,1.8631-.44034,2.49124-1.38247l3.67298-4.76183Zm5.50415,3.89138c-.10945-1.42133-1.20116-2.5806-2.68287-2.5806-1.03653,0-1.92699,.6554-2.49124,1.43367l-1.746,2.44748c-.47908,.55299-.66007,1.1352-.66007,1.85353,0,1.42523,1.20116,2.5806,2.68287,2.5806,.93054,0,1.74997-.45601,2.23117-1.14805l2.1764-2.90718s.55361-.84996,.48973-1.67945Zm37.34669-20.76568l-9.98728-17.43052c-.73917-1.29006-1.28645-2.15712,.17989-2.93447l3.97898-2.07243c1.61752-.71679,1.84456,.14241,2.58374,1.43247l9.98728,17.43052c.73917,1.29006,1.44296,2.07618-.02338,2.85353l-4.30224,2.24545c-1.46634,.77734-1.67782-.23449-2.41699-1.52455ZM20.58521,26.45106l-10.3035,17.25938c-.76258,1.27739-1.24892,2.17744-2.70086,1.37548l-3.9071-2.19532c-1.47662-.95768-.83103-1.59037-.06845-2.86776L13.9088,22.76345c.76258-1.27739,1.09574-2.26409,2.54769-1.46213l4.22865,2.37126c1.45194,.80196,.66265,1.50109-.09993,2.77848Z" style="fill: #fff;"/>
  <path d="M64.88483,9.87682H13.4276c-.66484,0-1.20389-.53905-1.20389-1.20389s.53905-1.20389,1.20389-1.20389h51.45724c.66484,0,1.20389,.53905,1.20389,1.20389s-.53905,1.20389-1.20389,1.20389Zm1.20389,5.6109c0-.66484-.53905-1.20389-1.20389-1.20389H13.4276c-.66484,0-1.20389,.53905-1.20389,1.20389s.53905,1.20389,1.20389,1.20389h51.45724c.66484,0,1.20389-.53905,1.20389-1.20389Zm-1.16745,5.50158H20.43431l1.77607,.87588c1.16499,.48768,1.67472,1.03569,1.85619,1.5319h40.34639c.06574-.51948,.39838-.96133,1.01857-1.38612,.0617-.04225,.2827-.15913,.58441-.31327-.18919-.41702-.60697-.70839-1.09467-.70839ZM13.42759,62.71885h5.71409c-.76446-.80208-1.28094-1.72709-1.28379-2.40778h-4.4303c-.66484,0-1.20389,.53905-1.20389,1.20389s.53905,1.20389,1.20389,1.20389Zm.00002,6.45028H31.11984c-.13339-.74996-.09031-1.56825-.09031-1.56825,0,0-1.53058,1.20262-2.84253,1.02041-.90919-.12626-2.321-.6837-3.1895-1.85994H13.42761c-.66484,0-1.20389,.53885-1.20389,1.20389s.53905,1.20389,1.20389,1.20389Zm42.03681-1.65934s-.42667,.88881-1.17974,1.65934h10.60036c.66504,0,1.20389-.53885,1.20389-1.20389s-.53885-1.20389-1.20389-1.20389h-5.15202c-.4022,.26357-.88971,.48492-1.48071,.6391-.95357,.24875-2.78789,.10934-2.78789,.10934Z" style="fill: #fff;"/>
  <g>
    <path d="M8.90909,27.40381c.84375,0,1.52979-.68604,1.52979-1.52979V3.06055h58.01807V19.82422c0,.84375,.68604,1.53027,1.52979,1.53027s1.53027-.68652,1.53027-1.53027V0H7.37833V25.87402c0,.84375,.68652,1.52979,1.53076,1.52979Z" style="fill: #fff;"/>
    <path d="M71.62296,58.72168c-.29102-.29248-.68213-.45361-1.10107-.45361-.84326,0-1.53125,.66943-1.53369,1.49268l-.03271,13.06201H10.52628v-23.06592c0-.82568-.68848-1.49707-1.53418-1.49707s-1.53418,.67139-1.53418,1.49707v26.06006H72.01603l.04053-16.04736c.00146-.39307-.15234-.76514-.43359-1.04785Z" style="fill: #fff;"/>
  </g>
  <path d="M67.45886,77.73054c-.76745,0-1.39164,.63589-1.39164,1.41773v2.15875H2.78328V45.98267c0-.78184-.62418-1.41773-1.39164-1.41773s-1.39164,.63589-1.39164,1.41773v38.1598H68.8505v-4.99421c0-.78184-.62418-1.41773-1.39164-1.41773Z" style="fill: #fff;"/>
  <path d="M4.0611,4.47363H.06012v28.85693c0,.70312,.6084,1.2749,1.35645,1.2749,.74756,0,1.35596-.57178,1.35596-1.2749V7.02344h1.28857c.74756,0,1.35596-.57178,1.35596-1.2749s-.6084-1.2749-1.35596-1.2749Z" style="fill: #fff;"/>
</svg>