<svg xmlns="http://www.w3.org/2000/svg" width="30.25" height="39.05" viewBox="0 0 30.25 39.05">
  <g id="Layer_1" transform="translate(-78.571 -311.511)">
    <g id="_325657608" data-name=" 325657608">
      <path id="_325658376" data-name=" 325658376" d="M93.7,337.282a3.068,3.068,0,1,1-2.169.9A3.058,3.058,0,0,1,93.7,337.282Z" fill="#040505" stroke="#fff" stroke-miterlimit="10" stroke-width="0.25"/>
      <path id="_325658496" data-name=" 325658496" d="M95.864,342.518a3.067,3.067,0,1,0-2.168.9A3.059,3.059,0,0,0,95.864,342.518Z" fill="#fff" stroke="#fff" stroke-miterlimit="10" stroke-width="0.25" fill-rule="evenodd"/>
      <path id="_325657824" data-name=" 325657824" d="M108.7,349.83V312.242a.606.606,0,0,0-.607-.606H79.3a.606.606,0,0,0-.606.606V349.83a.606.606,0,0,0,.606.606h28.787A.606.606,0,0,0,108.7,349.83Zm-4.624-19.961H83.319a.606.606,0,0,1,0-1.213h20.753a.606.606,0,1,1,0,1.213Zm0-4.379H83.319a.606.606,0,1,1,0-1.212h20.753a.606.606,0,1,1,0,1.212Zm0-4.378H83.319a.607.607,0,0,1,0-1.213h20.753a.607.607,0,1,1,0,1.213Zm0-4.379H83.319a.606.606,0,1,1,0-1.212h20.753a.606.606,0,1,1,0,1.212Zm-2.517,24.86a.606.606,0,0,1-.606.606H99.615q-.084.268-.19.523t-.236.505l.943.943a.607.607,0,0,1,0,.858l0,0-1.756,1.756a.605.605,0,0,1-.857,0l0,0-.941-.942q-.248.13-.5.237t-.524.189V347.6a.606.606,0,0,1-.606.606H92.452a.606.606,0,0,1-.606-.606v-1.335c-.179-.055-.354-.118-.523-.189s-.34-.15-.5-.237l-.943.944a.607.607,0,0,1-.858,0l0,0-1.756-1.756a.607.607,0,0,1,0-.858l0,0,.942-.941q-.131-.247-.237-.505c-.07-.169-.134-.344-.189-.523H86.442a.606.606,0,0,1-.606-.606v-2.487a.606.606,0,0,1,.606-.606h1.335c.055-.179.119-.354.189-.523s.15-.34.237-.505l-.944-.944a.605.605,0,0,1,0-.857l0,0,1.755-1.755a.607.607,0,0,1,.858,0l0,0,.941.941q.248-.129.5-.236c.169-.071.344-.134.523-.19V333.1a.606.606,0,0,1,.606-.606h2.487a.606.606,0,0,1,.606.606v1.334q.269.084.524.19t.5.236l.944-.943a.605.605,0,0,1,.857,0l0,0,1.756,1.756a.605.605,0,0,1,0,.857l0,0-.941.941q.129.248.236.5t.19.524h1.334a.606.606,0,0,1,.606.606v2.487Z" fill="#fff" stroke="#fff" stroke-miterlimit="10" stroke-width="0.25" fill-rule="evenodd"/>
    </g>
  </g>
</svg>
