<?xml version="1.0" encoding="UTF-8"?>
<svg width="60px" height="60px" viewBox="0 0 90 60" version="1.1" xmlns="http://www.w3.org/2000/svg" xmlns:xlink="http://www.w3.org/1999/xlink">
    <!-- Generator: Sketch 55.2 (78181) - https://sketchapp.com -->
    <title>Plan Performance</title>
    <desc>Created with Sketch.</desc>
    <g id="Plan-Performance" stroke="none" stroke-width="1" fill="none" fill-rule="evenodd">
        <g id="Group-9" transform="translate(1.000000, 1.000000)" fill="#FFFFFF" fill-rule="nonzero">
            <path d="M9.63836466,18.8144531 C9.63836466,20.1503906 10.4088049,21.3378912 11.9496854,22.3769531 C12.9035644,22.9707026 14.7196021,23.7871099 17.3977987,24.8261719 C20.0759952,25.8652338 22.0387846,26.71875 23.2861635,27.3867188 C25.3406714,28.5 26.918239,29.7617182 28.0188679,31.171875 C29.3396226,32.953125 30,35.0312506 30,37.40625 C30,40.6718744 28.9360581,43.5107416 26.8081761,45.9228516 C24.680294,48.3349615 21.8553459,49.8378912 18.3333333,50.4316406 L18.3333333,55.6640625 C18.3333333,56.0351557 18.204926,56.3505865 17.9481131,56.6103516 C17.6913003,56.8701166 17.3794543,57 17.0125785,57 L12.6100628,57 C12.243187,57 11.9313411,56.8701166 11.6745282,56.6103516 C11.4177153,56.3505865 11.2893081,56.0351557 11.2893081,55.6640625 L11.2893081,50.3203125 C9.16142601,49.9492193 7.16194955,49.2998041 5.29088036,48.3720703 C3.41981116,47.4443365 1.78721213,46.3125 0.393081587,44.9765625 C0.1729558,44.7539062 0.0445485304,44.4755859 0.007861459,44.1416016 C-0.0288256124,43.8076172 0.0628929059,43.4921881 0.283018693,43.1953125 L3.58490551,38.6308594 C3.80503129,38.3339838 4.1168756,38.1669916 4.5204401,38.1298828 C4.92400461,38.092774 5.23584891,38.1855469 5.4559747,38.4082031 C6.99685521,39.5957037 8.53773572,40.5605463 10.0786162,41.3027344 C11.8396225,42.0449224 13.527253,42.4160156 15.1415093,42.4160156 C16.9758915,42.4160156 18.4433962,41.9335943 19.5440251,40.96875 C20.4245282,40.078125 20.8647798,39.0390631 20.8647798,37.8515625 C20.8647798,36.6640619 20.1677154,35.5878912 18.7735848,34.6230469 C17.8197059,34.0292974 16.0403569,33.2128901 13.4355345,32.1738281 C10.8307121,31.1347662 8.8679244,30.28125 7.54716968,29.6132812 C5.41928763,28.4257807 3.76834422,27.0527344 2.59433946,25.4941406 C1.27358474,23.6386713 0.613207375,21.4492193 0.613207375,18.9257812 C0.613207375,16.03125 1.58542904,13.4892584 3.52987406,11.2998047 C5.47431907,9.110351 8.06079708,7.64453182 11.2893081,6.90234375 L11.2893081,1.3359375 C11.2893081,0.964844316 11.4177153,0.649413496 11.6745282,0.389648438 C11.9313411,0.129883379 12.243187,0 12.6100628,0 L17.0125785,0 C17.3794543,0 17.6913003,0.129883379 17.9481131,0.389648438 C18.204926,0.649413496 18.3333333,0.964844316 18.3333333,1.3359375 L18.3333333,6.56835938 C20.1677154,6.79101562 21.9837531,7.27343693 23.7814465,8.015625 C25.5791399,8.75781307 27.1016777,9.68554688 28.3490566,10.7988281 C28.5691824,11.0214844 28.7159323,11.2812494 28.7893082,11.578125 C28.862684,11.8750283 28.8259952,12.1718744 28.6792453,12.46875 L26.0377358,17.2558594 C25.8909859,17.6269526 25.6158286,17.8496088 25.2122641,17.9238281 C24.8086996,17.9980474 24.4601682,17.9238281 24.1666666,17.7011719 C21.2316556,15.6230463 18.4067091,14.5839844 15.6918238,14.5839844 C13.8574417,14.5839844 12.389937,14.9736328 11.2893081,15.7529297 C10.1886791,16.5322266 9.63836466,17.5527349 9.63836466,18.8144531 Z" id="d"></path>
            <path d="M49.7636364,49.8315217 C49.7636364,50.699576 49.4945064,51.4374258 48.95625,52.0450634 C48.4179936,52.652701 47.7643928,52.9565217 46.9954545,52.9565217 L37.7681818,52.9565217 C36.9992436,52.9565217 36.3456428,52.652701 35.8073864,52.0450634 C35.26913,51.4374258 35,50.699576 35,49.8315217 L35,31.0815217 C35,30.2134675 35.26913,29.4756176 35.8073864,28.8679801 C36.3456428,28.2603425 36.9992436,27.9565217 37.7681818,27.9565217 L46.9954545,27.9565217 C47.7643928,27.9565217 48.4179936,28.2603425 48.95625,28.8679801 C49.4945064,29.4756176 49.7636364,30.2134675 49.7636364,31.0815217 L49.7636364,49.8315217 Z M93,50.525 C93,51.212499 92.73087,51.796876 92.1926136,52.278125 C91.6543572,52.759374 91.0007564,53 90.2318182,53 L81.0045455,53 C80.2356072,53 79.5820064,52.759374 79.04375,52.278125 C78.5054936,51.796876 78.2363636,51.212499 78.2363636,50.525 L78.2363636,22.475 C78.2363636,21.787501 78.5054936,21.203124 79.04375,20.721875 C79.5820064,20.240626 80.2356072,20 81.0045455,20 L90.2318182,20 C91.0007564,20 91.6543572,20.240626 92.1926136,20.721875 C92.73087,21.203124 93,21.787501 93,22.475 L93,50.525 Z M70.8545455,50.4285714 C70.8545455,51.1428561 70.5854155,51.7500011 70.0471591,52.25 C69.5089027,52.7499989 68.8553019,53 68.0863636,53 L58.8590909,53 C58.0901527,53 57.4365519,52.7499989 56.8982955,52.25 C56.3600391,51.7500011 56.0909091,51.1428561 56.0909091,50.4285714 L56.0909091,7.57142857 C56.0909091,6.85714395 56.3600391,6.24999891 56.8982955,5.75 C57.4365519,5.25000109 58.0901527,5 58.8590909,5 L68.0863636,5 C68.8553019,5 69.5089027,5.25000109 70.0471591,5.75 C70.5854155,6.24999891 70.8545455,6.85714395 70.8545455,7.57142857 L70.8545455,50.4285714 Z" id="c" transform="translate(64.000000, 29.000000) rotate(-270.000000) translate(-64.000000, -29.000000) "></path>
        </g>
    </g>
</svg>