<?xml version="1.0" encoding="UTF-8"?>
<svg width="90px" height="60px" viewBox="0 0 90 60" version="1.1" xmlns="http://www.w3.org/2000/svg" xmlns:xlink="http://www.w3.org/1999/xlink">
    <!-- Generator: Sketch 55.2 (78181) - https://sketchapp.com -->
    <title>Artboard Copy 2</title>
    <desc>Created with Sketch.</desc>
    <g id="Artboard-Copy-2" stroke="none" stroke-width="1" fill="none" fill-rule="evenodd">
        <g id="Group" transform="translate(15.000000, 0.000000)" fill="#FFFFFF">
            <path d="M43,57.475 C43,58.0374991 42.8359368,58.5156259 42.5078125,58.909375 C42.1796882,59.3031241 41.7812493,59.5 41.3125,59.5 L35.6875,59.5 C35.2187507,59.5 34.8203118,59.3031241 34.4921875,58.909375 C34.1640632,58.5156259 34,58.0374991 34,57.475 L34,34.525 C34,33.9625009 34.1640632,33.4843741 34.4921875,33.090625 C34.8203118,32.6968759 35.2187507,32.5 35.6875,32.5 L41.3125,32.5 C41.7812493,32.5 42.1796882,32.6968759 42.5078125,33.090625 C42.8359368,33.4843741 43,33.9625009 43,34.525 L43,57.475 Z M26,57.625 C26,58.1458325 25.8359368,58.5885425 25.5078125,58.953125 C25.1796882,59.3177075 24.7812493,59.5 24.3125,59.5 L18.6875,59.5 C18.2187507,59.5 17.8203118,59.3177075 17.4921875,58.953125 C17.1640632,58.5885425 17,58.1458325 17,57.625 L17,26.375 C17,25.8541675 17.1640632,25.4114575 17.4921875,25.046875 C17.8203118,24.6822925 18.2187507,24.5 18.6875,24.5 L24.3125,24.5 C24.7812493,24.5 25.1796882,24.6822925 25.5078125,25.046875 C25.8359368,25.4114575 26,25.8541675 26,26.375 L26,57.625 Z M9,57.5714286 C9,58.107142 8.83593678,58.5625008 8.5078125,58.9375 C8.17968822,59.3124992 7.78124928,59.5 7.3125,59.5 L1.6875,59.5 C1.21875072,59.5 0.820311785,59.3124992 0.4921875,58.9375 C0.164063215,58.5625008 0,58.107142 0,57.5714286 L0,43.4285714 C0,42.892858 0.164063215,42.4374992 0.4921875,42.0625 C0.820311785,41.6875008 1.21875072,41.5 1.6875,41.5 L7.3125,41.5 C7.78124928,41.5 8.17968822,41.6875008 8.5078125,42.0625 C8.83593678,42.4374992 9,42.892858 9,43.4285714 L9,57.5714286 Z M60,57.484375 C60,58.04427 59.8359368,58.5201831 59.5078125,58.9121094 C59.1796882,59.3040356 58.7812493,59.5 58.3125,59.5 L52.6875,59.5 C52.2187507,59.5 51.8203118,59.3040356 51.4921875,58.9121094 C51.1640632,58.5201831 51,58.04427 51,57.484375 L51,18.515625 C51,17.95573 51.1640632,17.4798169 51.4921875,17.0878906 C51.8203118,16.6959644 52.2187507,16.5 52.6875,16.5 L58.3125,16.5 C58.7812493,16.5 59.1796882,16.6959644 59.5078125,17.0878906 C59.8359368,17.4798169 60,17.95573 60,18.515625 L60,57.484375 Z" id="c" fill-rule="nonzero"></path>
            <circle id="Oval" cx="4.5" cy="31" r="3.5"></circle>
            <circle id="Oval" cx="21.5" cy="8" r="3.5"></circle>
            <circle id="Oval" cx="55" cy="4" r="3.5"></circle>
            <circle id="Oval" cx="38" cy="21" r="3.5"></circle>
            <polygon id="Path-2" fill-rule="nonzero" points="21.6911913 9.42372352 38.0789347 22.3352789 55.7071068 4.70710678 54.2928932 3.29289322 37.9210653 19.6647211 21.3088087 6.57627648 3.69582386 30.4056089 5.30417614 31.5943911"></polygon>
        </g>
    </g>
</svg>