<?xml version="1.0" encoding="UTF-8"?>
<svg width="24px" height="24px" viewBox="0 0 24 24" version="1.1" xmlns="http://www.w3.org/2000/svg" xmlns:xlink="http://www.w3.org/1999/xlink">
    <!-- Generator: Sketch 55.2 (78181) - https://sketchapp.com -->
    <title>Group 2</title>
    <desc>Created with Sketch.</desc>
    <g id="Patient-Profile" stroke="none" stroke-width="1" fill="none" fill-rule="evenodd">
        <g id="Side-Nav" transform="translate(-122.000000, -421.000000)">
            <g id="Group-2" transform="translate(122.000000, 421.000000)">
                <rect id="Rectangle" fill="#FFFFFF" x="0" y="0" width="24" height="24" rx="2"></rect>
                <path d="M9.53968254,11.1533665 L10.015873,24 L13.984127,24 L14.5,11.1533665 C14.4900979,11.0001572 14.4238551,10.8541185 14.3115079,10.7378181 C14.1062645,10.5607573 13.8412823,10.4488934 13.5575397,10.4195258 C13.0416667,10.2957454 12.5654762,10.2338552 12,10.1454407 C11.4742063,10.2250138 10.9583333,10.3045868 10.4424603,10.4283672 C10.1595397,10.4539948 9.89425585,10.5628751 9.68849206,10.7378181 C9.5767756,10.8544604 9.51062202,11.0003019 9.5,11.1533665 M14.4305556,7.12166319 C14.4249223,5.95066233 13.3600459,5.00315109 12.0461063,5.00000776 C10.7321668,4.99688004 9.6616122,5.93929538 9.64894266,7.11025256 C9.63627312,8.28120973 10.6862369,9.24184856 12,9.2612952 C13.3204427,9.2612952 14.390873,8.30730778 14.390873,7.13050464" id="Shape" fill="#232D69" fill-rule="nonzero"></path>
            </g>
        </g>
    </g>
</svg>