<?xml version="1.0" encoding="utf-8"?>
<!-- Generator: Adobe Illustrator 26.0.3, SVG Export Plug-In . SVG Version: 6.00 Build 0)  -->
<svg version="1.1" id="Layer_1" xmlns="http://www.w3.org/2000/svg" xmlns:xlink="http://www.w3.org/1999/xlink" x="0px" y="0px"
	 viewBox="0 0 475 60" style="enable-background:new 0 0 475 60;" xml:space="preserve">
<style type="text/css">
	.st0{fill-rule:evenodd;clip-rule:evenodd;fill:#FFFFFF;}
</style>
<desc>Created with Sketch.</desc>
<g id="Page-1">
	<g id="Identifi_Admin-Tools">
		<g id="Group">
			<polygon id="Fill-4" class="st0" points="214.6,60 216.6,60 216.6,0 214.6,0 			"/>
			<path id="Fill-5" class="st0" d="M146.6,20.3c0-0.3,0.2-0.7,0.4-1c0.4-0.5,1-0.6,1.5-0.7c1-0.3,2.1-0.5,3.1-0.7
				c1,0.2,2.1,0.3,3.1,0.6c0.5,0.1,1.1,0.3,1.5,0.7c0.2,0.2,0.4,0.6,0.4,1l-1,29.7h-4h-4L146.6,20.3z"/>
			<path id="Fill-7" class="st0" d="M156.6,11c0-2.8-2.2-5-5-5c-2.8,0-5,2.2-5,5s2.2,5,5,5C154.4,16,156.6,13.8,156.6,11"/>
			<polygon id="Fill-9" class="st0" points="4.6,50 12.6,50 12.6,10 4.6,10 			"/>
			<path id="Fill-11" class="st0" d="M40.6,33.5v0.8c0-5-2.9-8.3-7-8.3c-4.1,0-7,3.3-7,8.3v0.1c0,5,3,8.3,7,8.3c4.1,0,7-3.3,7-8.3
				 M16.6,33.5v0.8c0-10.1,6.9-15.6,14.2-15.6c4.7,0,7.8,2.1,9.8,4.5V8h10v41.1h-10v-4c-2,2.8-5.2,4.9-9.8,4.9
				c-7.2,0-14.2-5.5-14.2-15.6"/>
			<path id="Fill-12" class="st0" d="M74.5,31c-0.5-4-2.7-6.5-6.3-6.5c-3.5,0-5.8,2.5-6.5,6.5H74.5z M52.6,35v-1
				c0-8.8,6.5-16,15.2-16c10,0,14.7,8,14.7,16.7c0,0.7,0.1,2.3,0.1,2.3H61.8c0.8,4,3.5,6,7.3,6c2.8,0,4.9-0.9,7.2-3.2l4.8,4.4
				C78.4,47.8,74,50,68.6,50c-9,0-16-6.5-16-15.9V35z"/>
			<path id="Fill-13" class="st0" d="M88.6,19.1h8v4c2-2.7,4.9-5.1,9.3-5.1c6.6,0,10.7,4.5,10.7,11.8V50h-10V32.6
				c0-4.3-1.6-6.5-4.9-6.5c-3.3,0-5.1,2.2-5.1,6.5V50h-8V19.1z"/>
			<path id="Fill-14" class="st0" d="M124.6,41.4V25.7h-4v-5.9h4V12h8v7.8h8v5.9h-8v13.8c0,2,1.3,2.9,3.3,2.9c1.6,0,2.7-0.4,4.7-1.1
				v6.9c-2,1.1-4,1.7-7,1.7c-5.3,0-9-2.1-9-9.1"/>
			<path id="Fill-15" class="st0" d="M164.6,26h-4v-6h4v-2.2c0-3.4,0.5-5.9,2.1-7.5c1.6-1.6,3.3-2.4,6.4-2.4c2.8,0,5.5,0.3,5.5,0.9
				v7.2c0-0.5-1.9-0.7-3.4-0.7c-2,0-2.6,1-2.6,3.3V20h6v6h-6v24h-8V26z"/>
			<path id="Fill-16" class="st0" d="M194.6,11c0-2.8-2.2-5-5-5c-2.8,0-5,2.2-5,5s2.2,5,5,5C192.4,16,194.6,13.8,194.6,11"/>
			<path id="Fill-17" class="st0" d="M185.7,50h4h4l1-29.7c0-0.3-0.2-0.7-0.4-1c-0.4-0.5-1-0.6-1.5-0.7c-1-0.3-2.1-0.4-3.1-0.6
				c-1,0.2-2.1,0.4-3.1,0.7c-0.5,0.1-1.1,0.2-1.5,0.7c-0.2,0.2-0.4,0.6-0.4,1L185.7,50z"/>
			<path id="ADMIN-TOOLS" class="st0" d="M237.6,44l9.9-22.6h3.6l9.9,22.6h-4.2l-2.3-5.4h-10.6l-2.3,5.4H237.6z M245.3,35.1h7.7
				l-3.9-9L245.3,35.1z M264.8,44V21.6h8.4c7,0,11.9,4.8,11.9,11.1v0.1c0,6.3-4.9,11.2-11.9,11.2H264.8z M273.1,25.2h-4.4v15.2h4.4
				c4.7,0,7.8-3.2,7.8-7.6v-0.1C280.9,28.4,277.8,25.2,273.1,25.2z M289.8,44h3.9V28l7,10.5h0.1l7.1-10.6V44h3.9V21.6h-4.2
				l-6.8,10.6L294,21.6h-4.2V44z M317.8,44h3.9V21.6h-3.9V44z M327.7,44h3.9V28.1L343.9,44h3.3V21.6h-3.9v15.5l-12-15.5h-3.6V44z
				 M368.1,44h4V25.2h7.1v-3.6H361v3.6h7.1V44z M392.8,44.4c-6.9,0-11.7-5.2-11.7-11.5v-0.1c0-6.3,4.9-11.6,11.7-11.6
				c6.9,0,11.7,5.2,11.7,11.5v0.1C404.5,39.1,399.7,44.4,392.8,44.4z M392.9,40.7c4.4,0,7.6-3.5,7.6-7.9v-0.1c0-4.4-3.2-8-7.6-8
				c-4.4,0-7.6,3.6-7.6,7.9v0.1C385.3,37.2,388.4,40.7,392.9,40.7z M420,44.4c-6.9,0-11.7-5.2-11.7-11.5v-0.1
				c0-6.3,4.9-11.6,11.7-11.6s11.7,5.2,11.7,11.5v0.1C431.7,39.1,426.9,44.4,420,44.4z M420.1,40.7c4.4,0,7.6-3.5,7.6-7.9v-0.1
				c0-4.4-3.2-8-7.6-8s-7.6,3.6-7.6,7.9v0.1C412.5,37.2,415.6,40.7,420.1,40.7z M436.5,44h15.7v-3.6h-11.8V21.6h-3.9V44z
				 M464.2,44.3c4.7,0,8-2.5,8-6.7v-0.1c0-3.7-2.4-5.4-7.2-6.6c-4.3-1-5.3-1.8-5.3-3.5v-0.1c0-1.5,1.3-2.7,3.6-2.7
				c2,0,4.1,0.8,6.1,2.3l2.1-3c-2.3-1.8-4.9-2.8-8.1-2.8c-4.4,0-7.6,2.7-7.6,6.5v0.1c0,4.1,2.7,5.5,7.5,6.7c4.2,1,5.1,1.8,5.1,3.4
				V38c0,1.7-1.5,2.8-4,2.8c-2.8,0-4.9-1.1-7.1-2.9l-2.4,2.8C457.5,43.1,460.7,44.3,464.2,44.3z"/>
		</g>
	</g>
</g>
</svg>
